<?xml version="1.0" encoding="UTF-8"?><svg xmlns="http://www.w3.org/2000/svg" xmlns:xlink="http://www.w3.org/1999/xlink" fill-opacity="1" color-rendering="auto" color-interpolation="auto" text-rendering="auto" stroke="black" stroke-linecap="square" width="581" stroke-miterlimit="10" shape-rendering="auto" stroke-opacity="1" fill="black" stroke-dasharray="none" font-weight="normal" stroke-width="1" height="395" font-family="'Dialog'" font-style="normal" stroke-linejoin="miter" font-size="12px" stroke-dashoffset="0" image-rendering="auto">
  <!--Generated by ySVG 2.6-->
  <defs id="genericDefs"/>
  <g>
    <defs id="defs1">
      <clipPath clipPathUnits="userSpaceOnUse" id="clipPath1">
        <path d="M0 0 L581 0 L581 395 L0 395 L0 0 Z"/>
      </clipPath>
      <clipPath clipPathUnits="userSpaceOnUse" id="clipPath2">
        <path d="M260 100 L841 100 L841 495 L260 495 L260 100 Z"/>
      </clipPath>
    </defs>
    <g fill="white" text-rendering="geometricPrecision" shape-rendering="geometricPrecision" transform="translate(-260,-100)" stroke="white">
      <rect x="260" width="581" height="395" y="100" clip-path="url(#clipPath2)" stroke="none"/>
    </g>
    <g fill="rgb(255,204,0)" text-rendering="geometricPrecision" shape-rendering="geometricPrecision" transform="matrix(1,0,0,1,-260,-100)" stroke="rgb(255,204,0)">
      <circle r="15" clip-path="url(#clipPath2)" cx="290" cy="278" stroke="none"/>
    </g>
    <g text-rendering="geometricPrecision" stroke-miterlimit="1.45" shape-rendering="geometricPrecision" transform="matrix(1,0,0,1,-260,-100)" stroke-linecap="butt">
      <circle fill="none" r="15" clip-path="url(#clipPath2)" cx="290" cy="278"/>
      <text x="285.667" y="282.7139" clip-path="url(#clipPath2)" font-family="sans-serif" stroke="none" font-weight="bold" xml:space="preserve">A</text>
    </g>
    <g fill="rgb(255,204,0)" text-rendering="geometricPrecision" shape-rendering="geometricPrecision" transform="matrix(1,0,0,1,-260,-100)" stroke="rgb(255,204,0)">
      <circle r="15" clip-path="url(#clipPath2)" cx="395" cy="190" stroke="none"/>
    </g>
    <g text-rendering="geometricPrecision" stroke-miterlimit="1.45" shape-rendering="geometricPrecision" transform="matrix(1,0,0,1,-260,-100)" stroke-linecap="butt">
      <circle fill="none" r="15" clip-path="url(#clipPath2)" cx="395" cy="190"/>
      <text x="390.667" y="194.7139" clip-path="url(#clipPath2)" font-family="sans-serif" stroke="none" font-weight="bold" xml:space="preserve">B</text>
    </g>
    <g fill="rgb(255,204,0)" text-rendering="geometricPrecision" shape-rendering="geometricPrecision" transform="matrix(1,0,0,1,-260,-100)" stroke="rgb(255,204,0)">
      <circle r="15" clip-path="url(#clipPath2)" cx="413" cy="351" stroke="none"/>
    </g>
    <g text-rendering="geometricPrecision" stroke-miterlimit="1.45" shape-rendering="geometricPrecision" transform="matrix(1,0,0,1,-260,-100)" stroke-linecap="butt">
      <circle fill="none" r="15" clip-path="url(#clipPath2)" cx="413" cy="351"/>
      <text x="408.667" y="355.7139" clip-path="url(#clipPath2)" font-family="sans-serif" stroke="none" font-weight="bold" xml:space="preserve">D</text>
    </g>
    <g fill="rgb(255,204,0)" text-rendering="geometricPrecision" shape-rendering="geometricPrecision" transform="matrix(1,0,0,1,-260,-100)" stroke="rgb(255,204,0)">
      <circle r="15" clip-path="url(#clipPath2)" cx="533" cy="230" stroke="none"/>
    </g>
    <g text-rendering="geometricPrecision" stroke-miterlimit="1.45" shape-rendering="geometricPrecision" transform="matrix(1,0,0,1,-260,-100)" stroke-linecap="butt">
      <circle fill="none" r="15" clip-path="url(#clipPath2)" cx="533" cy="230"/>
      <text x="528.998" y="234.7139" clip-path="url(#clipPath2)" font-family="sans-serif" stroke="none" font-weight="bold" xml:space="preserve">E</text>
    </g>
    <g fill="rgb(255,204,0)" text-rendering="geometricPrecision" shape-rendering="geometricPrecision" transform="matrix(1,0,0,1,-260,-100)" stroke="rgb(255,204,0)">
      <circle r="15" clip-path="url(#clipPath2)" cx="562" cy="346" stroke="none"/>
    </g>
    <g text-rendering="geometricPrecision" stroke-miterlimit="1.45" shape-rendering="geometricPrecision" transform="matrix(1,0,0,1,-260,-100)" stroke-linecap="butt">
      <circle fill="none" r="15" clip-path="url(#clipPath2)" cx="562" cy="346"/>
      <text x="557.333" y="350.7139" clip-path="url(#clipPath2)" font-family="sans-serif" stroke="none" font-weight="bold" xml:space="preserve">G</text>
    </g>
    <g fill="rgb(255,204,0)" text-rendering="geometricPrecision" shape-rendering="geometricPrecision" transform="matrix(1,0,0,1,-260,-100)" stroke="rgb(255,204,0)">
      <circle r="15" clip-path="url(#clipPath2)" cx="628" cy="130" stroke="none"/>
    </g>
    <g text-rendering="geometricPrecision" stroke-miterlimit="1.45" shape-rendering="geometricPrecision" transform="matrix(1,0,0,1,-260,-100)" stroke-linecap="butt">
      <circle fill="none" r="15" clip-path="url(#clipPath2)" cx="628" cy="130"/>
      <text x="623.667" y="134.7139" clip-path="url(#clipPath2)" font-family="sans-serif" stroke="none" font-weight="bold" xml:space="preserve">H</text>
    </g>
    <g fill="rgb(255,204,0)" text-rendering="geometricPrecision" shape-rendering="geometricPrecision" transform="matrix(1,0,0,1,-260,-100)" stroke="rgb(255,204,0)">
      <circle r="15" clip-path="url(#clipPath2)" cx="666" cy="297" stroke="none"/>
    </g>
    <g text-rendering="geometricPrecision" stroke-miterlimit="1.45" shape-rendering="geometricPrecision" transform="matrix(1,0,0,1,-260,-100)" stroke-linecap="butt">
      <circle fill="none" r="15" clip-path="url(#clipPath2)" cx="666" cy="297"/>
      <text x="664.333" y="301.7139" clip-path="url(#clipPath2)" font-family="sans-serif" stroke="none" font-weight="bold" xml:space="preserve">I</text>
    </g>
    <g fill="rgb(255,204,0)" text-rendering="geometricPrecision" shape-rendering="geometricPrecision" transform="matrix(1,0,0,1,-260,-100)" stroke="rgb(255,204,0)">
      <circle r="15" clip-path="url(#clipPath2)" cx="502" cy="465" stroke="none"/>
    </g>
    <g text-rendering="geometricPrecision" stroke-miterlimit="1.45" shape-rendering="geometricPrecision" transform="matrix(1,0,0,1,-260,-100)" stroke-linecap="butt">
      <circle fill="none" r="15" clip-path="url(#clipPath2)" cx="502" cy="465"/>
      <text x="498.335" y="469.7139" clip-path="url(#clipPath2)" font-family="sans-serif" stroke="none" font-weight="bold" xml:space="preserve">F</text>
    </g>
    <g fill="rgb(255,204,0)" text-rendering="geometricPrecision" shape-rendering="geometricPrecision" transform="matrix(1,0,0,1,-260,-100)" stroke="rgb(255,204,0)">
      <circle r="15" clip-path="url(#clipPath2)" cx="666" cy="420" stroke="none"/>
    </g>
    <g text-rendering="geometricPrecision" stroke-miterlimit="1.45" shape-rendering="geometricPrecision" transform="matrix(1,0,0,1,-260,-100)" stroke-linecap="butt">
      <circle fill="none" r="15" clip-path="url(#clipPath2)" cx="666" cy="420"/>
      <text x="662.6631" y="424.7139" clip-path="url(#clipPath2)" font-family="sans-serif" stroke="none" font-weight="bold" xml:space="preserve">J</text>
    </g>
    <g fill="rgb(255,204,0)" text-rendering="geometricPrecision" shape-rendering="geometricPrecision" transform="matrix(1,0,0,1,-260,-100)" stroke="rgb(255,204,0)">
      <circle r="15" clip-path="url(#clipPath2)" cx="776" cy="200" stroke="none"/>
    </g>
    <g text-rendering="geometricPrecision" stroke-miterlimit="1.45" shape-rendering="geometricPrecision" transform="matrix(1,0,0,1,-260,-100)" stroke-linecap="butt">
      <circle fill="none" r="15" clip-path="url(#clipPath2)" cx="776" cy="200"/>
      <text x="771.667" y="204.7139" clip-path="url(#clipPath2)" font-family="sans-serif" stroke="none" font-weight="bold" xml:space="preserve">K</text>
    </g>
    <g fill="rgb(255,204,0)" text-rendering="geometricPrecision" shape-rendering="geometricPrecision" transform="matrix(1,0,0,1,-260,-100)" stroke="rgb(255,204,0)">
      <circle r="15" clip-path="url(#clipPath2)" cx="811" cy="364" stroke="none"/>
    </g>
    <g text-rendering="geometricPrecision" stroke-miterlimit="1.45" shape-rendering="geometricPrecision" transform="matrix(1,0,0,1,-260,-100)" stroke-linecap="butt">
      <circle fill="none" r="15" clip-path="url(#clipPath2)" cx="811" cy="364"/>
      <text x="807.335" y="368.7139" clip-path="url(#clipPath2)" font-family="sans-serif" stroke="none" font-weight="bold" xml:space="preserve">L</text>
    </g>
    <g fill="rgb(255,204,0)" text-rendering="geometricPrecision" shape-rendering="geometricPrecision" transform="matrix(1,0,0,1,-260,-100)" stroke="rgb(255,204,0)">
      <circle r="15" clip-path="url(#clipPath2)" cx="342" cy="444" stroke="none"/>
    </g>
    <g text-rendering="geometricPrecision" stroke-miterlimit="1.45" shape-rendering="geometricPrecision" transform="matrix(1,0,0,1,-260,-100)" stroke-linecap="butt">
      <circle fill="none" r="15" clip-path="url(#clipPath2)" cx="342" cy="444"/>
      <text x="337.667" y="448.7139" clip-path="url(#clipPath2)" font-family="sans-serif" stroke="none" font-weight="bold" xml:space="preserve">C</text>
      <path fill="none" d="M301.4963 268.365 L383.5037 199.635" clip-path="url(#clipPath2)"/>
      <text x="327.866" font-size="14px" y="231.9868" clip-path="url(#clipPath2)" font-family="sans-serif" stroke="none" font-weight="bold" xml:space="preserve">3</text>
      <path fill="none" d="M411.3334 336.0929 L396.6666 204.9071" clip-path="url(#clipPath2)"/>
      <text x="391.0315" font-size="14px" y="275.9995" clip-path="url(#clipPath2)" font-family="sans-serif" stroke="none" font-weight="bold" xml:space="preserve">5</text>
      <path fill="none" d="M409.407 194.1759 L518.593 225.8241" clip-path="url(#clipPath2)"/>
      <text x="460.1069" font-size="14px" y="229.7833" clip-path="url(#clipPath2)" font-family="sans-serif" stroke="none" font-weight="bold" xml:space="preserve">3</text>
      <path fill="none" d="M423.5625 340.3495 L522.4375 240.6505" clip-path="url(#clipPath2)"/>
      <text x="459.3798" font-size="14px" y="288.2898" clip-path="url(#clipPath2)" font-family="sans-serif" stroke="none" font-weight="bold" xml:space="preserve">5</text>
      <path fill="none" d="M536.6381 244.5521 L558.3619 331.4479" clip-path="url(#clipPath2)"/>
      <text x="533.0699" font-size="14px" y="293.4995" clip-path="url(#clipPath2)" font-family="sans-serif" stroke="none" font-weight="bold" xml:space="preserve">2</text>
      <path fill="none" d="M427.9915 350.4969 L547.0084 346.5031" clip-path="url(#clipPath2)"/>
      <text x="483.6069" font-size="14px" y="341.2261" clip-path="url(#clipPath2)" font-family="sans-serif" stroke="none" font-weight="bold" xml:space="preserve">4</text>
      <path fill="none" d="M543.3312 219.125 L617.6688 140.875" clip-path="url(#clipPath2)"/>
      <text x="567.7628" font-size="14px" y="177.0302" clip-path="url(#clipPath2)" font-family="sans-serif" stroke="none" font-weight="bold" xml:space="preserve">4</text>
      <path fill="none" d="M409.5261 186.2594 L613.4739 133.7406" clip-path="url(#clipPath2)"/>
      <text x="503.7139" font-size="14px" y="150.4038" clip-path="url(#clipPath2)" font-family="sans-serif" stroke="none" font-weight="bold" xml:space="preserve">10</text>
      <path fill="none" d="M575.5693 339.6068 L652.4307 303.3932" clip-path="url(#clipPath2)"/>
      <text x="610.1069" font-size="14px" y="311.6473" clip-path="url(#clipPath2)" font-family="sans-serif" stroke="none" font-weight="bold" xml:space="preserve">2</text>
      <path fill="none" d="M546.3962 236.7485 L652.6038 290.2515" clip-path="url(#clipPath2)"/>
      <text x="607.4343" font-size="14px" y="259.4133" clip-path="url(#clipPath2)" font-family="sans-serif" stroke="none" font-weight="bold" xml:space="preserve">4</text>
      <path fill="none" d="M422.2306 362.8235 L492.7694 453.1765" clip-path="url(#clipPath2)"/>
      <text x="444.2207" font-size="14px" y="421.6008" clip-path="url(#clipPath2)" font-family="sans-serif" stroke="none" font-weight="bold" xml:space="preserve">5</text>
      <path fill="none" d="M666 312 L666 405" clip-path="url(#clipPath2)"/>
      <text x="654.2139" font-size="14px" y="363.9995" clip-path="url(#clipPath2)" font-family="sans-serif" stroke="none" font-weight="bold" xml:space="preserve">3</text>
      <path fill="none" d="M516.4653 461.0309 L651.5347 423.9691" clip-path="url(#clipPath2)"/>
      <text x="580.1069" font-size="14px" y="462.1922" clip-path="url(#clipPath2)" font-family="sans-serif" stroke="none" font-weight="bold" xml:space="preserve">5</text>
      <path fill="none" d="M574.2219 354.6963 L653.7781 411.3037" clip-path="url(#clipPath2)"/>
      <text x="599.616" font-size="14px" y="396.8036" clip-path="url(#clipPath2)" font-family="sans-serif" stroke="none" font-weight="bold" xml:space="preserve">3</text>
      <path fill="none" d="M641.5598 136.4134 L762.4402 193.5866" clip-path="url(#clipPath2)"/>
      <text x="708.8524" font-size="14px" y="160.2189" clip-path="url(#clipPath2)" font-family="sans-serif" stroke="none" font-weight="bold" xml:space="preserve">6</text>
      <path fill="none" d="M547.887 228.1621 L761.113 201.8379" clip-path="url(#clipPath2)"/>
      <text x="646.7139" font-size="14px" y="206.7157" clip-path="url(#clipPath2)" font-family="sans-serif" stroke="none" font-weight="bold" xml:space="preserve">10</text>
      <path fill="none" d="M677.2505 287.0791 L764.7495 209.9209" clip-path="url(#clipPath2)"/>
      <text x="705.116" font-size="14px" y="247.8011" clip-path="url(#clipPath2)" font-family="sans-serif" stroke="none" font-weight="bold" xml:space="preserve">5</text>
      <path fill="none" d="M679.6166 303.2918 L797.3834 357.7082" clip-path="url(#clipPath2)"/>
      <text x="734.6069" font-size="14px" y="321.7008" clip-path="url(#clipPath2)" font-family="sans-serif" stroke="none" font-weight="bold" xml:space="preserve">6</text>
      <path fill="none" d="M679.9927 414.5959 L797.0073 369.4041" clip-path="url(#clipPath2)"/>
      <text x="734.6069" font-size="14px" y="412.3511" clip-path="url(#clipPath2)" font-family="sans-serif" stroke="none" font-weight="bold" xml:space="preserve">6</text>
      <path fill="none" d="M294.4839 292.3141 L337.5161 429.6859" clip-path="url(#clipPath2)"/>
      <text x="300.901" font-size="14px" y="366.4995" clip-path="url(#clipPath2)" font-family="sans-serif" stroke="none" font-weight="bold" xml:space="preserve">8</text>
      <path fill="none" d="M351.1022 432.0774 L403.8978 362.9226" clip-path="url(#clipPath2)"/>
      <text x="363.418" font-size="14px" y="397.0508" clip-path="url(#clipPath2)" font-family="sans-serif" stroke="none" font-weight="bold" xml:space="preserve">2</text>
    </g>
  </g>
</svg>
